HIERARCHY
ROOT hip
{
  OFFSET 0 0 0
  CHANNELS 6 Xposition Yposition Zposition Zrotation Yrotation Xrotation
  JOINT abdomen
  {
    OFFSET 0 20.6881 -0.73152
    CHANNELS 3 Zrotation Xrotation Yrotation
    JOINT chest
    {
      OFFSET 0 11.7043 -0.48768
      CHANNELS 3 Zrotation Xrotation Yrotation
      JOINT neck
      {
        OFFSET 0 22.1894 -2.19456
        CHANNELS 3 Zrotation Xrotation Yrotation
        JOINT head
        {
          OFFSET -0.24384 7.07133 1.2192
          CHANNELS 3 Zrotation Xrotation Yrotation
          JOINT leftEye
          {
            OFFSET 4.14528 8.04674 8.04672
            CHANNELS 3 Zrotation Xrotation Yrotation
            End Site
            {
              OFFSET 1 0 0
            }
          }
          JOINT rightEye
          {
            OFFSET -3.6576 8.04674 8.04672
            CHANNELS 3 Zrotation Xrotation Yrotation
            End Site
            {
              OFFSET 1 0 0
            }
          }
        }
      }
      JOINT rCollar
      {
        OFFSET -2.68224 19.2634 -4.8768
        CHANNELS 3 Zrotation Xrotation Yrotation
        JOINT rShldr
        {
          OFFSET -8.77824 -1.95073 1.46304
          CHANNELS 3 Zrotation Xrotation Yrotation
          JOINT rForeArm
          {
            OFFSET -28.1742 -1.7115 0.48768
            CHANNELS 3 Zrotation Xrotation Yrotation
            JOINT rHand
            {
              OFFSET -22.5879 0.773209 7.07136
              CHANNELS 3 Zrotation Xrotation Yrotation
              JOINT rThumb1
              {
                OFFSET -1.2192 -0.487915 3.41376
                CHANNELS 3 Zrotation Xrotation Yrotation
                JOINT rThumb2
                {
                  OFFSET -3.37035 -0.52449 3.41376
                  CHANNELS 3 Zrotation Xrotation Yrotation
                  End Site
                  {
                    OFFSET -1.78271 -1.18214 1.43049
                  }
                }
              }
              JOINT rIndex1
              {
                OFFSET -7.75947 0.938293 5.60832
                CHANNELS 3 Zrotation Xrotation Yrotation
                JOINT rIndex2
                {
                  OFFSET -2.54057 -0.884171 1.56538
                  CHANNELS 3 Zrotation Xrotation Yrotation
                  End Site
                  {
                    OFFSET -1.62519 -0.234802 1.16502
                  }
                }
              }
              JOINT rMid1
              {
                OFFSET -8.24714 1.18213 3.41376
                CHANNELS 3 Zrotation Xrotation Yrotation
                JOINT rMid2
                {
                  OFFSET -3.10165 -0.590103 1.0647
                  CHANNELS 3 Zrotation Xrotation Yrotation
                  End Site
                  {
                    OFFSET -2.48547 -0.328903 0.83742
                  }
                }
              }
              JOINT rRing1
              {
                OFFSET -8.82822 0.546677 1.51678
                CHANNELS 3 Zrotation Xrotation Yrotation
                JOINT rRing2
                {
                  OFFSET -2.60934 -0.819778 -0.0198488
                  CHANNELS 3 Zrotation Xrotation Yrotation
                  End Site
                  {
                    OFFSET -2.33842 -0.294052 0.168128
                  }
                }
              }
              JOINT rPinky1
              {
                OFFSET -8.27202 -0.0477905 -0.4584
                CHANNELS 3 Zrotation Xrotation Yrotation
                JOINT rPinky2
                {
                  OFFSET -1.82734 -0.647385 -0.700984
                  CHANNELS 3 Zrotation Xrotation Yrotation
                  End Site
                  {
                    OFFSET -1.69225 -0.51767 -0.607171
                  }
                }
              }
            }
          }
        }
      }
      JOINT lCollar
      {
        OFFSET 2.68224 19.2634 -4.8768
        CHANNELS 3 Zrotation Xrotation Yrotation
        JOINT lShldr
        {
          OFFSET 8.77824 -1.95073 1.46304
          CHANNELS 3 Zrotation Xrotation Yrotation
          JOINT lForeArm
          {
            OFFSET 28.1742 -1.7115 0.48768
            CHANNELS 3 Zrotation Xrotation Yrotation
            JOINT lHand
            {
              OFFSET 22.5879 0.773209 7.07136
              CHANNELS 3 Zrotation Xrotation Yrotation
              JOINT lThumb1
              {
                OFFSET 1.2192 -0.487915 3.41376
                CHANNELS 3 Zrotation Xrotation Yrotation
                JOINT lThumb2
                {
                  OFFSET 3.37035 -0.52449 3.41376
                  CHANNELS 3 Zrotation Xrotation Yrotation
                  End Site
                  {
                    OFFSET 1.78271 -1.18214 1.43049
                  }
                }
              }
              JOINT lIndex1
              {
                OFFSET 7.75947 0.938293 5.60832
                CHANNELS 3 Zrotation Xrotation Yrotation
                JOINT lIndex2
                {
                  OFFSET 2.54057 -0.884171 1.56538
                  CHANNELS 3 Zrotation Xrotation Yrotation
                  End Site
                  {
                    OFFSET 1.62519 -0.234802 1.16502
                  }
                }
              }
              JOINT lMid1
              {
                OFFSET 8.24714 1.18213 3.41376
                CHANNELS 3 Zrotation Xrotation Yrotation
                JOINT lMid2
                {
                  OFFSET 3.10165 -0.590103 1.0647
                  CHANNELS 3 Zrotation Xrotation Yrotation
                  End Site
                  {
                    OFFSET 2.48547 -0.328903 0.83742
                  }
                }
              }
              JOINT lRing1
              {
                OFFSET 8.82822 0.546677 1.51678
                CHANNELS 3 Zrotation Xrotation Yrotation
                JOINT lRing2
                {
                  OFFSET 2.60934 -0.819778 -0.0198488
                  CHANNELS 3 Zrotation Xrotation Yrotation
                  End Site
                  {
                    OFFSET 2.33842 -0.294052 0.168128
                  }
                }
              }
              JOINT lPinky1
              {
                OFFSET 8.27202 -0.0477905 -0.4584
                CHANNELS 3 Zrotation Xrotation Yrotation
                JOINT lPinky2
                {
                  OFFSET 1.82734 -0.647385 -0.700984
                  CHANNELS 3 Zrotation Xrotation Yrotation
                  End Site
                  {
                    OFFSET 1.69225 -0.51767 -0.607171
                  }
                }
              }
            }
          }
        }
      }
    }
  }
  JOINT rButtock
  {
    OFFSET -8.77824 4.35084 1.2192
    CHANNELS 3 Zrotation Xrotation Yrotation
    JOINT rThigh
    {
      OFFSET 0 -1.70687 -2.19456
      CHANNELS 3 Zrotation Xrotation Yrotation
      JOINT rShin
      {
        OFFSET 0 -36.8199 0.73152
        CHANNELS 3 Zrotation Xrotation Yrotation
        JOINT rFoot
        {
          OFFSET 0.73152 -45.1104 -5.12064
          CHANNELS 3 Zrotation Xrotation Yrotation
          End Site
          {
            OFFSET -1.1221 -3.69964 12.103
          }
        }
      }
    }
  }
  JOINT lButtock
  {
    OFFSET 8.77824 4.35084 1.2192
    CHANNELS 3 Zrotation Xrotation Yrotation
    JOINT lThigh
    {
      OFFSET 0 -1.70687 -2.19456
      CHANNELS 3 Zrotation Xrotation Yrotation
      JOINT lShin
      {
        OFFSET 0 -36.8199 0.73152
        CHANNELS 3 Zrotation Xrotation Yrotation
        JOINT lFoot
        {
          OFFSET -0.73152 -45.1104 -5.12064
          CHANNELS 3 Zrotation Xrotation Yrotation
          End Site
          {
            OFFSET 1.1221 -3.69964 12.103
          }
        }
      }
    }
  }
}
MOTION
Frames:	9
Frame Time:	0.00833333
7.57616 82.8478 -29.0969 725.441 82.3251 14.8813 -0.557739 -2.69547 4.64214 -1.47957 0.346608 1.31991 1.16344 8.26266 0.134255 -8.77153 -9.40866 -0.167881 -0.0 0.0 0.0 -0.0 0.0 0.0 4.45074e-14 -5.42917e-12 3.61555e-14 85.3176 57.6326 -6.05724 -27.7501 -41.7969 87.0024 -1.30419 -30.5862 -4.76514 -7.88216e-10 -7.537e-10 -1.35907e-09 -1.32481e-09 -1.30923e-09 -2.3659e-09 -7.88206e-10 -7.53697e-10 -1.35908e-09 7.73091 5.47488 0.417314 -7.88218e-10 -7.53696e-10 -1.35906e-09 2.90554 0.965183 0.102902 -7.88212e-10 -7.537e-10 -1.35907e-09 10.2786 0.731801 0.0259123 -7.88221e-10 -7.53699e-10 -1.35906e-09 2.22167 -0.733487 -0.20892 4.45758e-14 -5.42848e-12 3.5749e-14 -42.8587 81.6183 -40.5745 28.163 -39.4482 -82.9376 0.216305 -13.095 1.87386 3.48668e-11 -2.99345e-09 1.66091e-09 4.01698e-11 -5.18771e-09 2.87175e-09 3.48616e-11 -2.99344e-09 1.66093e-09 -7.73091 5.47488 -0.417314 3.48693e-11 -2.99344e-09 1.66092e-09 -2.90554 0.965183 -0.102902 3.48612e-11 -2.99345e-09 1.66092e-09 -10.2786 0.731801 -0.0259123 3.48755e-11 -2.99344e-09 1.66092e-09 -2.22167 -0.733487 0.20892 -2.03217e-16 0.0 -3.88251e-19 -19.1573 -29.6239 -8.70962 -0.352153 42.132 0.879802 -4.65425 -6.08336 -21.5148 2.03217e-16 0.0 3.88251e-19 -4.35199 -25.3611 -2.20746 0.0929616 23.4688 -0.353159 -0.0645145 -18.693 -0.574176
7.49509 83.2172 -28.8347 734.575 84.541 24.0189 -0.719174 -2.97529 3.22823 -1.28823 0.409629 0.923269 0.817108 8.34289 -0.104809 -8.2919 -9.5685 -0.561989 -0.0 0.0 0.0 -0.0 0.0 0.0 4.58574e-14 -5.83393e-12 5.76476e-15 83.683 56.5559 -5.79246 -27.321 -43.0907 89.6635 -1.18822 -29.3567 -4.53401 -2.87449e-10 -3.70812e-10 -8.07696e-10 -4.77806e-10 -6.43261e-10 -1.40218e-09 -2.87439e-10 -3.70808e-10 -8.07702e-10 7.73091 5.47488 0.417314 -2.87452e-10 -3.70811e-10 -8.07692e-10 2.90554 0.965183 0.102902 -2.87443e-10 -3.70811e-10 -8.07688e-10 10.2786 0.731801 0.0259123 -2.87453e-10 -3.70811e-10 -8.07683e-10 2.22167 -0.733487 -0.20892 4.59795e-14 -5.83314e-12 5.36719e-15 -32.5799 81.144 -51.8805 28.1296 -39.666 -83.3253 0.207654 -12.8729 1.84055 -2.88031e-11 -2.08464e-09 1.05334e-09 -6.12269e-11 -3.60878e-09 1.82107e-09 -2.88087e-11 -2.08463e-09 1.05336e-09 -7.73091 5.47488 -0.417314 -2.88023e-11 -2.08464e-09 1.05334e-09 -2.90554 0.965183 -0.102902 -2.88078e-11 -2.08464e-09 1.05334e-09 -10.2786 0.731801 -0.0259123 -2.87942e-11 -2.08463e-09 1.05334e-09 -2.22167 -0.733487 0.20892 -2.03217e-16 0.0 -3.88251e-19 -19.1884 -27.8713 -7.48899 -0.270994 37.7098 0.758105 -4.50593 -5.57613 -22.2189 2.03217e-16 0.0 3.88251e-19 -4.10524 -24.8042 -2.08355 0.0859145 21.872 -0.311916 -0.893643 -18.788 -2.67757
7.56568 83.4339 -28.1885 737.526 86.5734 26.6008 -0.703164 -3.14277 2.03238 -1.17265 0.596977 0.586868 0.517041 8.29554 -0.298907 -7.78995 -9.71347 -0.880534 -0.0 0.0 0.0 -0.0 0.0 0.0 4.0467e-14 -4.80184e-12 -8.14939e-15 81.2043 55.4514 -4.58461 -26.8842 -44.214 92.0279 -1.09441 -28.2407 -4.33077 -2.9375e-10 -5.97338e-10 -1.10718e-09 -4.86908e-10 -1.03632e-09 -1.91907e-09 -2.93741e-10 -5.97334e-10 -1.10719e-09 7.73091 5.47488 0.417314 -2.93752e-10 -5.9734e-10 -1.10718e-09 2.90554 0.965183 0.102902 -2.93744e-10 -5.97337e-10 -1.10718e-09 10.2786 0.731801 0.0259123 -2.93754e-10 -5.97337e-10 -1.10717e-09 2.22167 -0.733487 -0.20892 4.05559e-14 -4.80115e-12 -8.57181e-15 -25.186 80.2241 -60.1617 28.0961 -39.8716 -83.6938 0.227398 -13.5657 1.94235 -6.50563e-11 -2.26509e-09 1.22235e-09 -1.27026e-10 -3.91852e-09 2.11347e-09 -6.50614e-11 -2.26508e-09 1.22237e-09 -7.73091 5.47488 -0.417314 -6.50556e-11 -2.26508e-09 1.22236e-09 -2.90554 0.965183 -0.102902 -6.50615e-11 -2.26509e-09 1.22236e-09 -10.2786 0.731801 -0.0259123 -6.50486e-11 -2.26508e-09 1.22236e-09 -2.22167 -0.733487 0.20892 -2.03217e-16 0.0 -3.88251e-19 -18.5961 -26.3883 -5.89725 -0.215463 34.227 0.662034 -4.18241 -4.82894 -22.5307 2.03217e-16 0.0 3.88251e-19 -3.33667 -24.239 -1.39804 0.080425 20.4692 -0.266494 -1.89593 -18.7491 -5.23897
7.3495 83.588 -27.756 755.689 88.2577 45.0363 -0.586084 -3.24924 0.980308 -1.10602 0.873928 0.290425 0.248039 8.16955 -0.448931 -7.264 -9.84931 -1.12005 -0.0 0.0 0.0 -0.0 0.0 0.0 2.92984e-14 -2.78921e-12 -9.56651e-15 78.1558 54.2786 -2.72714 -26.4617 -45.279 94.1176 -1.0097 -27.1113 -4.13107 -5.6496e-10 -1.17539e-09 -1.89148e-09 -9.42945e-10 -2.04011e-09 -3.27897e-09 -5.64952e-10 -1.17538e-09 -1.89149e-09 7.73091 5.47488 0.417314 -5.64961e-10 -1.17539e-09 -1.89149e-09 2.90554 0.965183 0.102902 -5.64955e-10 -1.17539e-09 -1.89148e-09 10.2786 0.731801 0.0259123 -5.64964e-10 -1.17539e-09 -1.89147e-09 2.22167 -0.733487 -0.20892 2.9299e-14 -2.78876e-12 -1.00324e-14 -20.4803 79.0218 -65.6461 28.0636 -40.0648 -84.0382 0.275306 -14.9507 2.14884 -9.18773e-11 -3.00101e-09 1.79528e-09 -1.82775e-10 -5.19116e-09 3.10447e-09 -9.18813e-11 -3.001e-09 1.79529e-09 -7.73091 5.47488 -0.417314 -9.18756e-11 -3.001e-09 1.79528e-09 -2.90554 0.965183 -0.102902 -9.18838e-11 -3.00101e-09 1.79528e-09 -10.2786 0.731801 -0.0259123 -9.18716e-11 -3.001e-09 1.79528e-09 -2.22167 -0.733487 0.20892 -2.03217e-16 0.0 -3.88251e-19 -17.6115 -25.0156 -4.10018 -0.175007 31.3342 0.577789 -3.71303 -3.85633 -22.5597 2.03217e-16 0.0 3.88251e-19 -2.23464 -23.6571 -0.269526 0.0769515 19.1733 -0.216847 -3.01676 -18.5952 -8.14837
7.40247 83.6995 -27.4389 831.356 88.201 120.171 -0.484225 -3.33025 0.112599 -1.08007 1.15719 0.0463855 0.0119924 8.03968 -0.588012 -6.71815 -10.013 -1.34352 -0.0 0.0 0.0 -0.0 0.0 0.0 1.70988e-14 -6.31661e-13 -3.35527e-15 75.0685 52.8842 -0.684802 -26.0547 -46.1966 95.9245 -0.899745 -25.6905 -3.88177 -8.65756e-10 -1.78948e-09 -2.73166e-09 -1.44863e-09 -3.10653e-09 -4.73633e-09 -8.6575e-10 -1.78948e-09 -2.73167e-09 7.73091 5.47488 0.417314 -8.65756e-10 -1.78949e-09 -2.73167e-09 2.90554 0.965183 0.102902 -8.65752e-10 -1.78949e-09 -2.73166e-09 10.2786 0.731801 0.0259123 -8.6576e-10 -1.78948e-09 -2.73165e-09 2.22167 -0.733487 -0.20892 1.70076e-14 -6.31479e-13 -3.85534e-15 -17.92 77.8156 -68.8573 28.0324 -40.2424 -84.3556 0.338298 -16.4312 2.37409 -1.04998e-10 -3.85104e-09 2.45104e-09 -2.16037e-10 -6.66215e-09 4.23878e-09 -1.05001e-10 -3.85103e-09 2.45105e-09 -7.73091 5.47488 -0.417314 -1.04995e-10 -3.85103e-09 2.45104e-09 -2.90554 0.965183 -0.102902 -1.05006e-10 -3.85103e-09 2.45104e-09 -10.2786 0.731801 -0.0259123 -1.04994e-10 -3.85104e-09 2.45104e-09 -2.22167 -0.733487 0.20892 -2.03217e-16 0.0 -3.88251e-19 -16.5501 -23.7697 -2.47684 -0.147286 29.0134 0.512281 -3.33411 -3.05152 -22.658 2.03217e-16 0.0 3.88251e-19 -1.11993 -23.0953 0.86103 0.0748672 17.9919 -0.169845 -4.06529 -18.3156 -10.9504
7.13316 83.8226 -26.8659 863.665 87.9838 152.659 -0.516421 -3.4216 -0.530307 -1.08837 1.36348 -0.132783 -0.188655 7.98063 -0.749358 -6.15784 -10.2413 -1.61417 -0.0 0.0 0.0 -0.0 0.0 0.0 8.61538e-15 8.35185e-13 5.61567e-15 72.4389 51.1411 1.1068 -25.6783 -46.8697 97.4237 -0.742311 -23.6992 -3.53687 -9.60817e-10 -2.12416e-09 -3.19877e-09 -1.60667e-09 -3.68745e-09 -5.5456e-09 -9.60812e-10 -2.12416e-09 -3.19878e-09 7.73091 5.47488 0.417314 -9.60816e-10 -2.12417e-09 -3.19877e-09 2.90554 0.965183 0.102902 -9.60813e-10 -2.12416e-09 -3.19877e-09 10.2786 0.731801 0.0259123 -9.6082e-10 -2.12416e-09 -3.19876e-09 2.22167 -0.733487 -0.20892 8.48065e-15 8.35187e-13 5.11871e-15 -16.8405 76.8388 -70.4368 28.0026 -40.4008 -84.6428 0.38685 -17.4112 2.52602 -1.00149e-10 -4.37382e-09 2.86856e-09 -2.14371e-10 -7.5669e-09 4.96111e-09 -1.00152e-10 -4.37381e-09 2.86857e-09 -7.73091 5.47488 -0.417314 -1.00146e-10 -4.37381e-09 2.86856e-09 -2.90554 0.965183 -0.102902 -1.00158e-10 -4.37382e-09 2.86856e-09 -10.2786 0.731801 -0.0259123 -1.00147e-10 -4.37382e-09 2.86856e-09 -2.22167 -0.733487 0.20892 -2.03217e-16 0.0 -3.88251e-19 -15.6895 -22.6842 -1.39178 -0.129719 27.2462 0.47313 -3.26817 -2.81292 -23.1683 2.03217e-16 0.0 3.88251e-19 -0.291298 -22.602 1.56145 0.0729288 16.9325 -0.132181 -4.85534 -17.9262 -13.1927
7.15373 83.8389 -26.4298 874.758 86.6783 163.5 -0.723999 -3.53802 -0.923081 -1.15887 1.48046 -0.239784 -0.332392 8.01119 -0.932446 -5.58362 -10.5482 -1.93496 -0.0 0.0 0.0 -0.0 0.0 0.0 5.16087e-15 1.34344e-12 2.24075e-14 70.2254 48.9642 2.65892 -25.3893 -47.299 98.5016 -0.553553 -20.9392 -3.07613 -7.34986e-10 -2.04883e-09 -3.11679e-09 -1.22189e-09 -3.55599e-09 -5.4006e-09 -7.34982e-10 -2.04884e-09 -3.1168e-09 7.73091 5.47488 0.417314 -7.34985e-10 -2.04885e-09 -3.1168e-09 2.90554 0.965183 0.102902 -7.34981e-10 -2.04884e-09 -3.11679e-09 10.2786 0.731801 0.0259123 -7.34989e-10 -2.04884e-09 -3.11678e-09 2.22167 -0.733487 -0.20892 5.05855e-15 1.34339e-12 2.19754e-14 -16.7503 76.1588 -70.8619 27.9775 -40.5262 -84.8741 0.400351 -17.6594 2.56497 -5.22279e-11 -4.47591e-09 2.95026e-09 -1.3279e-10 -7.74397e-09 5.10294e-09 -5.22306e-11 -4.47591e-09 2.95026e-09 -7.73091 5.47488 -0.417314 -5.22253e-11 -4.47591e-09 2.95025e-09 -2.90554 0.965183 -0.102902 -5.22353e-11 -4.47591e-09 2.95026e-09 -10.2786 0.731801 -0.0259123 -5.22242e-11 -4.47591e-09 2.95025e-09 -2.22167 -0.733487 0.20892 -2.03217e-16 0.0 -3.88251e-19 -15.007 -21.8565 -0.995876 -0.121018 26.3325 0.468713 -3.68323 -3.37317 -24.3113 2.03217e-16 0.0 3.88251e-19 0.147892 -22.1721 1.63163 0.0689009 15.9722 -0.105231 -5.29552 -17.4603 -14.6497
6.96389 83.8394 -25.8576 879.932 85.8767 168.589 -1.03822 -3.6593 -1.09202 -1.28675 1.54927 -0.282565 -0.426671 8.09187 -1.12281 -4.99508 -10.9125 -2.27727 -0.0 0.0 0.0 -0.0 0.0 0.0 4.18782e-15 1.35379e-12 4.74971e-14 68.278 46.4426 4.12755 -25.2226 -47.5757 99.1204 -0.379596 -17.598 -2.54653 -3.31236e-10 -1.74725e-09 -2.73505e-09 -5.35935e-10 -3.03138e-09 -4.73476e-09 -3.31233e-10 -1.74725e-09 -2.73506e-09 7.73091 5.47488 0.417314 -3.31236e-10 -1.74725e-09 -2.73506e-09 2.90554 0.965183 0.102902 -3.3123e-10 -1.74725e-09 -2.73505e-09 10.2786 0.731801 0.0259123 -3.3124e-10 -1.74725e-09 -2.73504e-09 2.22167 -0.733487 -0.20892 4.16167e-15 1.35374e-12 4.7171e-14 -17.4928 75.6877 -70.3101 27.9573 -40.6261 -85.0573 0.39343 -17.518 2.54299 2.85016e-11 -4.38463e-09 2.87136e-09 8.18126e-12 -7.58698e-09 4.96724e-09 2.84979e-11 -4.38463e-09 2.87137e-09 -7.73091 5.47488 -0.417314 2.85031e-11 -4.38463e-09 2.87136e-09 -2.90554 0.965183 -0.102902 2.8496e-11 -4.38463e-09 2.87136e-09 -10.2786 0.731801 -0.0259123 2.85072e-11 -4.38463e-09 2.87135e-09 -2.22167 -0.733487 0.20892 -2.03217e-16 0.0 -3.88251e-19 -14.3279 -21.2533 -1.05162 -0.117356 26.1804 0.489266 -4.47502 -4.45254 -25.8687 2.03217e-16 0.0 3.88251e-19 0.382856 -21.7894 1.33745 0.0630231 15.1151 -0.085158 -5.49901 -16.9252 -15.5998
6.80552 83.8421 -25.238 884.084 85.2907 172.77 -1.41404 -3.76873 -1.07419 -1.4169 1.56683 -0.271505 -0.512048 8.20987 -1.33278 -4.39752 -11.3179 -2.6572 -0.0 0.0 0.0 -0.0 0.0 0.0 4.65324e-15 1.12346e-12 6.9139e-14 66.8348 43.7369 5.3704 -25.1554 -47.7219 99.3791 -0.240488 -13.9756 -1.99942 9.85615e-11 -1.37539e-09 -2.26259e-09 1.933e-10 -2.38472e-09 -3.91187e-09 9.85637e-11 -1.37539e-09 -2.26259e-09 7.73091 5.47488 0.417314 9.85616e-11 -1.3754e-09 -2.26259e-09 2.90554 0.965183 0.102902 9.85685e-11 -1.37539e-09 -2.26258e-09 10.2786 0.731801 0.0259123 9.85579e-11 -1.37539e-09 -2.26257e-09 2.22167 -0.733487 -0.20892 4.70866e-15 1.12345e-12 6.89204e-14 -19.1136 75.3904 -68.7609 27.9373 -40.7279 -85.2406 0.3801 -17.2521 2.50161 9.32533e-11 -4.13972e-09 2.72001e-09 1.22715e-10 -7.16397e-09 4.70593e-09 9.32487e-11 -4.13972e-09 2.72001e-09 -7.73091 5.47488 -0.417314 9.32535e-11 -4.13972e-09 2.72e-09 -2.90554 0.965183 -0.102902 9.32493e-11 -4.13972e-09 2.72e-09 -10.2786 0.731801 -0.0259123 9.32607e-11 -4.13972e-09 2.71999e-09 -2.22167 -0.733487 0.20892 -2.03217e-16 0.0 -3.88251e-19 -13.6965 -20.7145 -1.3406 -0.113913 26.1846 0.516651 -5.43745 -5.68875 -27.5202 2.03217e-16 0.0 3.88251e-19 0.553739 -21.4907 0.94794 0.0574637 14.4099 -0.0707823 -5.59117 -16.3066 -16.3494
